<svg id="final_svg" viewBox="99.97000122070312 441.0224304199219 907.5250244140625 197.64736938476562" xmlns="http://www.w3.org/2000/svg" xmlns:xlink="http://www.w3.org/1999/xlink" xml:space="preserve">
      <g id="png_group" transform="translate(840.5, 441) scale(0.627564825253664)" opacity="1">
      <g height="197.68291995490415" width="166.995" transform="rotate(0)">
                  <title>help-complexity-5</title>
          <g id="color_index_0" data-name="color index 0" fill="rgba(77, 186, 96, 1)">
                          <path d="M242.7,42.8,154,3.4a39.7,39.7,0,0,0-30.8-.5L24.6,42.2A39.5,39.5,0,0,0,0,78.8V236.5a39.5,39.5,0,0,0,24.6,36.6L123,312.2a39.9,39.9,0,0,0,30.7-.6l88.8-39a39.7,39.7,0,0,0,23.6-36.1V78.8A39.8,39.8,0,0,0,242.7,42.8Zm13.5,193.7a29.5,29.5,0,0,1-17.6,27L150,302.9a29.2,29.2,0,0,1-23,.5L28.5,264A29.7,29.7,0,0,1,9.9,236.5V78.8A29.6,29.6,0,0,1,28.4,51.4L126.9,12a29.2,29.2,0,0,1,23,.5l88.6,39.4a29.6,29.6,0,0,1,17.7,26.9Z"></path>
              <path d="M133,68.8a88.7,88.7,0,1,0,88.7,88.7A88.7,88.7,0,0,0,133,68.8Zm61.7,39.7-28.2,28.3A40.8,40.8,0,0,0,153.8,124L182,95.8A76.3,76.3,0,0,1,194.7,108.5ZM133,187.2c-21.8,0-29.4-19.1-29.4-29.5s9.2-29.5,29.4-29.5,29.7,19.3,29.7,29.3C162.7,170.3,152.3,187.2,133,187.2Zm0-108.5a78.3,78.3,0,0,1,40.8,11.4l-29.6,29.6a38.2,38.2,0,0,0-22.2,0L92.4,90.1A77.6,77.6,0,0,1,133,78.7ZM84.1,95.8,112.3,124a39.1,39.1,0,0,0-12.8,12.8L71.3,108.5A80.9,80.9,0,0,1,84.1,95.8ZM65.6,198.2a78.4,78.4,0,0,1,0-81.4l29.6,29.6a38.2,38.2,0,0,0,0,22.2Zm5.7,8.3,28.3-28.3A38.8,38.8,0,0,0,112.3,191L84.1,219.2A85.4,85.4,0,0,1,71.3,206.5ZM133,236.3a77.9,77.9,0,0,1-40.7-11.4l29.6-29.6a38.2,38.2,0,0,0,22.2,0l29.6,29.6A77.9,77.9,0,0,1,133,236.3Zm49-17.1L153.8,191a40.8,40.8,0,0,0,12.7-12.8l28.2,28.2A80.9,80.9,0,0,1,182,219.2Zm-11.2-50.6a38.2,38.2,0,0,0,0-22.2l29.6-29.6a78.4,78.4,0,0,1,0,81.4Z"></path>
                      </g>
              </g>
    </g>
    <g id="text_group" transform="rotate(0)" opacity="1">
      <g id="text_layer_1_0" fill="rgba(0, 0, 0, 1)" transform="translate(92.5, 441)">
                  <path d="M7.47 98.97L20.17 98.97L20.17 70.36L64.75 70.36L64.75 98.97L77.44 98.97L77.44 28.96L64.75 28.96L64.75 57.57L20.17 57.57L20.17 28.96L7.47 28.96ZM147.31 63.67C147.31 57.28 144.68 52.88 141.21 50.10C137.70 47.36 133.35 46.19 129.83 46.19L106.93 46.19C100.54 46.19 96.14 48.83 93.41 52.29C90.63 55.81 89.45 60.16 89.45 63.67L89.45 81.49C89.45 87.89 92.09 92.29 95.61 95.02C99.07 97.80 103.42 98.97 106.93 98.97L129.83 98.97L129.83 86.87L107.03 86.87C103.91 86.87 101.51 84.86 101.51 81.49L101.51 63.77C101.51 60.64 103.47 58.25 106.93 58.25L129.83 58.25C132.81 58.25 135.25 60.25 135.25 63.57C135.25 66.70 133.30 69.09 129.83 69.09L106.93 69.09L106.93 81.15L129.83 81.15C136.23 81.15 140.63 78.52 143.41 75C146.14 71.53 147.31 67.19 147.31 63.67ZM179.05 86.28L173.39 86.28C170.46 86.28 168.26 84.28 168.26 81.15L168.26 23.88L155.57 23.88L155.57 81.15C155.57 94.29 166.16 98.97 173.39 98.97L179.05 98.97ZM245.41 63.96C245.41 56.79 240.72 46.19 227.64 46.19L204.74 46.19C197.66 46.19 186.91 50.88 186.91 63.96L186.91 115.48L199.61 115.48L199.61 63.96C199.61 60.64 201.37 58.89 204.83 58.89L227.64 58.89C230.96 58.89 232.71 60.55 232.71 64.06L232.71 81.15C232.71 84.47 231.01 86.28 227.64 86.28L204.74 86.28L204.74 98.97L227.64 98.97C234.81 98.97 245.41 94.29 245.41 81.15ZM313.04 63.67C313.04 57.28 310.40 52.88 306.93 50.10C303.42 47.36 299.07 46.19 295.56 46.19L272.66 46.19C266.26 46.19 261.87 48.83 259.13 52.29C256.35 55.81 255.18 60.16 255.18 63.67L255.18 81.49C255.18 87.89 257.81 92.29 261.33 95.02C264.79 97.80 269.14 98.97 272.66 98.97L295.56 98.97L295.56 86.87L272.75 86.87C269.63 86.87 267.24 84.86 267.24 81.49L267.24 63.77C267.24 60.64 269.19 58.25 272.66 58.25L295.56 58.25C298.54 58.25 300.98 60.25 300.98 63.57C300.98 66.70 299.02 69.09 295.56 69.09L272.66 69.09L272.66 81.15L295.56 81.15C301.95 81.15 306.35 78.52 309.13 75C311.87 71.53 313.04 67.19 313.04 63.67ZM367.77 46.19L339.11 46.19C332.03 46.19 321.29 50.88 321.29 63.96L321.29 98.97L333.98 98.97L333.98 63.96C333.98 60.64 335.74 58.89 339.21 58.89L367.77 58.89ZM421.63 58.25L375.83 58.25L375.83 69.68L421.63 69.68ZM425.73 28.96L455.71 64.06L425.83 98.97L443.12 98.97L464.31 74.17L485.60 98.97L502.83 98.97L472.90 64.06L503.03 28.96L485.69 28.96L464.31 53.96L442.92 28.96ZM520.21 92.58C520.21 89.21 517.29 86.28 513.92 86.28C510.40 86.28 507.62 89.21 507.62 92.58C507.62 96.09 510.40 98.88 513.92 98.88C517.29 98.88 520.21 96.09 520.21 92.58ZM584.62 63.67C584.62 57.28 581.98 52.88 578.52 50.10C575 47.36 570.65 46.19 567.14 46.19L539.26 46.19L539.26 58.25L567.14 58.25C570.26 58.25 572.56 60.35 572.56 63.67L572.56 81.40C572.56 84.52 570.61 86.87 567.14 86.87L544.34 86.87C541.36 86.87 538.82 84.91 538.82 81.59C538.82 78.47 540.77 76.07 544.24 76.07L567.14 76.07L567.14 63.96L544.24 63.96C531.45 63.96 526.76 74.46 526.76 81.49C526.76 87.89 529.39 92.29 532.91 95.02C536.38 97.80 540.72 98.97 544.24 98.97L567.14 98.97C573.54 98.97 577.93 96.34 580.71 92.82C583.45 89.36 584.62 85.01 584.62 81.49ZM653.66 63.96C653.66 56.79 648.97 46.19 635.89 46.19L612.99 46.19C605.91 46.19 595.17 50.88 595.17 63.96L595.17 115.48L607.86 115.48L607.86 63.96C607.86 60.64 609.62 58.89 613.09 58.89L635.89 58.89C639.21 58.89 640.97 60.55 640.97 64.06L640.97 81.15C640.97 84.47 639.26 86.28 635.89 86.28L612.99 86.28L612.99 98.97L635.89 98.97C643.07 98.97 653.66 94.29 653.66 81.15ZM722.71 63.96C722.71 56.79 718.02 46.19 704.93 46.19L682.03 46.19C674.95 46.19 664.21 50.88 664.21 63.96L664.21 115.48L676.90 115.48L676.90 63.96C676.90 60.64 678.66 58.89 682.13 58.89L704.93 58.89C708.25 58.89 710.01 60.55 710.01 64.06L710.01 81.15C710.01 84.47 708.30 86.28 704.93 86.28L682.03 86.28L682.03 98.97L704.93 98.97C712.11 98.97 722.71 94.29 722.71 81.15Z"></path>
              </g>
    </g>
    <g id="tagline_group" transform="rotate(0)" opacity="1">
      <g id="text_layer_2_0" fill="rgba(0, 0, 0, 0.5)" transform="translate(102.5, 569.792)">
                  <path d="M1.15 9.09L1.15 5.31L33.92 5.31L33.92 9.09L19.71 9.09L19.71 49.66L15.36 49.66L15.36 9.09L1.15 9.09ZM40.58 49.66L40.58 0.77L44.74 0L44.74 17.54Q49.02 15.94 53.12 15.94L53.12 15.94Q56.96 15.94 59.52 17.02Q62.08 18.11 63.62 20.13Q65.15 22.14 65.76 24.96Q66.37 27.78 66.37 31.17L66.37 31.17L66.37 49.66L62.21 49.66L62.21 32.51Q62.21 28.99 61.73 26.56Q61.25 24.13 60.13 22.59Q59.01 21.06 57.15 20.38Q55.30 19.71 52.48 19.71L52.48 19.71Q51.39 19.71 50.14 19.87Q48.90 20.03 47.81 20.29Q46.72 20.54 45.89 20.80Q45.06 21.06 44.74 21.18L44.74 21.18L44.74 49.66L40.58 49.66ZM75.01 33.09L75.01 33.09Q75.01 28.74 76.26 25.50Q77.50 22.27 79.52 20.10Q81.54 17.92 84.13 16.86Q86.72 15.81 89.47 15.81L89.47 15.81Q95.55 15.81 99.17 19.78Q102.78 23.74 102.78 32L102.78 32Q102.78 32.51 102.75 33.02Q102.72 33.54 102.66 33.98L102.66 33.98L79.42 33.98Q79.62 40.06 82.43 43.33Q85.25 46.59 91.39 46.59L91.39 46.59Q94.78 46.59 96.77 45.95Q98.75 45.31 99.65 44.86L99.65 44.86L100.42 48.45Q99.52 48.96 97.06 49.66Q94.59 50.37 91.26 50.37L91.26 50.37Q86.91 50.37 83.84 49.09Q80.77 47.81 78.78 45.50Q76.80 43.20 75.90 40.03Q75.01 36.86 75.01 33.09ZM79.55 30.46L98.50 30.46Q98.37 25.28 96.06 22.40Q93.76 19.52 89.54 19.52L89.54 19.52Q87.30 19.52 85.54 20.42Q83.78 21.31 82.46 22.82Q81.15 24.32 80.42 26.30Q79.68 28.29 79.55 30.46L79.55 30.46ZM136.45 46.85L136.45 46.85Q141.63 46.85 144.51 44.96Q147.39 43.07 147.39 38.85L147.39 38.85Q147.39 36.42 146.46 34.78Q145.54 33.15 144 32.03Q142.46 30.91 140.48 30.11Q138.50 29.31 136.32 28.42L136.32 28.42Q133.57 27.33 131.39 26.18Q129.22 25.02 127.68 23.58Q126.14 22.14 125.34 20.29Q124.54 18.43 124.54 15.94L124.54 15.94Q124.54 10.24 128.32 7.30Q132.10 4.35 138.82 4.35L138.82 4.35Q140.61 4.35 142.34 4.61Q144.06 4.86 145.57 5.28Q147.07 5.70 148.32 6.21Q149.57 6.72 150.40 7.30L150.40 7.30L148.86 10.94Q147.01 9.66 144.35 8.90Q141.70 8.13 138.62 8.13L138.62 8.13Q136.51 8.13 134.75 8.54Q132.99 8.96 131.71 9.89Q130.43 10.82 129.70 12.22Q128.96 13.63 128.96 15.62L128.96 15.62Q128.96 17.66 129.73 19.07Q130.50 20.48 131.87 21.50Q133.25 22.53 135.10 23.36Q136.96 24.19 139.14 25.09L139.14 25.09Q141.76 26.18 144.10 27.26Q146.43 28.35 148.16 29.82Q149.89 31.30 150.91 33.41Q151.94 35.52 151.94 38.59L151.94 38.59Q151.94 44.61 147.74 47.62Q143.55 50.62 136.38 50.62L136.38 50.62Q133.82 50.62 131.71 50.30Q129.60 49.98 127.94 49.50Q126.27 49.02 125.12 48.51Q123.97 48 123.33 47.62L123.33 47.62L124.74 43.84Q125.38 44.22 126.46 44.74Q127.55 45.25 129.02 45.73Q130.50 46.21 132.35 46.53Q134.21 46.85 136.45 46.85ZM163.90 16.58L163.90 49.66L159.74 49.66L159.74 16.58L163.90 16.58ZM164.86 6.59L164.86 6.59Q164.86 8.06 163.97 8.93Q163.07 9.79 161.79 9.79L161.79 9.79Q160.51 9.79 159.62 8.93Q158.72 8.06 158.72 6.59L158.72 6.59Q158.72 5.12 159.62 4.26Q160.51 3.39 161.79 3.39L161.79 3.39Q163.07 3.39 163.97 4.26Q164.86 5.12 164.86 6.59ZM179.07 49.66L174.91 49.66L174.91 17.73Q176.77 17.22 179.74 16.58Q182.72 15.94 187.46 15.94L187.46 15.94Q193.79 15.94 196.54 19.58L196.54 19.58Q196.86 19.33 197.79 18.72Q198.72 18.11 200.13 17.50Q201.54 16.90 203.42 16.42Q205.31 15.94 207.62 15.94L207.62 15.94Q211.39 15.94 213.73 17.06Q216.06 18.18 217.34 20.19Q218.62 22.21 219.07 24.99Q219.52 27.78 219.52 31.17L219.52 31.17L219.52 49.66L215.36 49.66L215.36 32.51Q215.36 29.25 215.07 26.85Q214.78 24.45 213.92 22.88Q213.06 21.31 211.49 20.51Q209.92 19.71 207.30 19.71L207.30 19.71Q205.38 19.71 203.81 20.10Q202.24 20.48 201.09 20.96Q199.94 21.44 199.20 21.95Q198.46 22.46 198.14 22.72L198.14 22.72Q198.72 24.38 199.01 26.46Q199.30 28.54 199.30 30.85L199.30 30.85L199.30 49.66L195.14 49.66L195.14 32.51Q195.14 29.25 194.85 26.85Q194.56 24.45 193.66 22.88Q192.77 21.31 191.14 20.51Q189.50 19.71 186.82 19.71L186.82 19.71Q183.74 19.71 181.70 20.03Q179.65 20.35 179.07 20.61L179.07 20.61L179.07 49.66ZM234.30 61.50L230.14 61.50L230.14 17.73Q232.00 17.09 234.88 16.51Q237.76 15.94 242.18 15.94L242.18 15.94Q245.82 15.94 248.80 17.12Q251.78 18.30 253.92 20.54Q256.06 22.78 257.25 25.98Q258.43 29.18 258.43 33.22L258.43 33.22Q258.43 36.99 257.44 40.16Q256.45 43.33 254.53 45.60Q252.61 47.87 249.82 49.15Q247.04 50.43 243.46 50.43L243.46 50.43Q240.19 50.43 237.79 49.50Q235.39 48.58 234.30 47.74L234.30 47.74L234.30 61.50ZM234.30 20.61L234.30 43.71Q235.46 44.61 237.76 45.63Q240.06 46.66 243.07 46.66L243.07 46.66Q246.14 46.66 248.22 45.60Q250.30 44.54 251.58 42.72Q252.86 40.90 253.44 38.43Q254.02 35.97 254.02 33.22L254.02 33.22Q254.02 26.62 250.78 23.17Q247.55 19.71 242.11 19.71L242.11 19.71Q239.04 19.71 237.15 20Q235.26 20.29 234.30 20.61L234.30 20.61ZM276.42 46.78L275.84 50.24Q273.73 50.18 272.16 49.70Q270.59 49.22 269.54 48.22Q268.48 47.23 267.94 45.66Q267.39 44.10 267.39 41.73L267.39 41.73L267.39 0.77L271.55 0L271.55 41.60Q271.55 43.14 271.84 44.06Q272.13 44.99 272.70 45.54Q273.28 46.08 274.21 46.34Q275.14 46.59 276.42 46.78L276.42 46.78ZM287.94 16.58L287.94 49.66L283.78 49.66L283.78 16.58L287.94 16.58ZM288.90 6.59L288.90 6.59Q288.90 8.06 288 8.93Q287.10 9.79 285.82 9.79L285.82 9.79Q284.54 9.79 283.65 8.93Q282.75 8.06 282.75 6.59L282.75 6.59Q282.75 5.12 283.65 4.26Q284.54 3.39 285.82 3.39L285.82 3.39Q287.10 3.39 288 4.26Q288.90 5.12 288.90 6.59ZM303.10 49.66L298.94 49.66L298.94 12.99Q298.94 6.46 301.92 3.23Q304.90 0 311.10 0L311.10 0Q313.79 0 315.49 0.42Q317.18 0.83 317.70 1.15L317.70 1.15L316.86 4.74Q316.16 4.42 314.78 4.06Q313.41 3.71 311.30 3.71L311.30 3.71Q306.88 3.71 304.99 5.92Q303.10 8.13 303.10 13.12L303.10 13.12L303.10 16.58L316.42 16.58L316.42 20.10L303.10 20.10L303.10 49.66ZM327.17 16.58L327.17 49.66L323.01 49.66L323.01 16.58L327.17 16.58ZM328.13 6.59L328.13 6.59Q328.13 8.06 327.23 8.93Q326.34 9.79 325.06 9.79L325.06 9.79Q323.78 9.79 322.88 8.93Q321.98 8.06 321.98 6.59L321.98 6.59Q321.98 5.12 322.88 4.26Q323.78 3.39 325.06 3.39L325.06 3.39Q326.34 3.39 327.23 4.26Q328.13 5.12 328.13 6.59ZM351.87 50.37L351.87 50.37Q348.03 50.37 345.09 49.15Q342.14 47.94 340.19 45.66Q338.24 43.39 337.22 40.22Q336.19 37.06 336.19 33.22L336.19 33.22Q336.19 29.31 337.25 26.11Q338.30 22.91 340.29 20.61Q342.27 18.30 345.09 17.06Q347.90 15.81 351.42 15.81L351.42 15.81Q354.11 15.81 356.45 16.26Q358.78 16.70 360.06 17.41L360.06 17.41L358.98 20.99Q357.70 20.35 356.10 19.97Q354.50 19.58 351.81 19.58L351.81 19.58Q346.30 19.58 343.46 23.14Q340.61 26.69 340.61 33.22L340.61 33.22Q340.61 36.16 341.25 38.62Q341.89 41.09 343.33 42.85Q344.77 44.61 347.04 45.60Q349.31 46.59 352.58 46.59L352.58 46.59Q355.26 46.59 357.09 45.98Q358.91 45.38 359.74 44.93L359.74 44.93L360.64 48.51Q359.49 49.15 357.02 49.76Q354.56 50.37 351.87 50.37ZM365.18 40L365.18 40Q365.18 37.31 366.21 35.39Q367.23 33.47 369.09 32.22Q370.94 30.98 373.50 30.40Q376.06 29.82 379.07 29.82L379.07 29.82Q379.97 29.82 380.96 29.92Q381.95 30.02 382.88 30.18Q383.81 30.34 384.48 30.50Q385.15 30.66 385.41 30.78L385.41 30.78L385.41 28.74Q385.41 27.01 385.15 25.38Q384.90 23.74 384.03 22.43Q383.17 21.12 381.63 20.32Q380.10 19.52 377.47 19.52L377.47 19.52Q373.82 19.52 372.03 20.03Q370.24 20.54 369.41 20.86L369.41 20.86L368.83 17.22Q369.92 16.70 372.16 16.26Q374.40 15.81 377.66 15.81L377.66 15.81Q380.93 15.81 383.20 16.74Q385.47 17.66 386.88 19.30Q388.29 20.93 388.93 23.17Q389.57 25.41 389.57 28.03L389.57 28.03L389.57 48.90Q388.29 49.28 384.90 49.82Q381.50 50.37 377.34 50.37L377.34 50.37Q374.78 50.37 372.54 49.79Q370.30 49.22 368.67 47.97Q367.04 46.72 366.11 44.74Q365.18 42.75 365.18 40ZM378.05 46.66L378.05 46.66Q380.48 46.66 382.30 46.50Q384.13 46.34 385.41 46.08L385.41 46.08L385.41 34.43Q384.70 34.11 383.17 33.76Q381.63 33.41 378.94 33.41L378.94 33.41Q377.41 33.41 375.74 33.63Q374.08 33.86 372.67 34.59Q371.26 35.33 370.37 36.61Q369.47 37.89 369.47 40L369.47 40Q369.47 43.71 371.78 45.18Q374.08 46.66 378.05 46.66ZM399.94 37.31L399.94 6.85L404.10 6.08L404.10 16.58L417.28 16.58L417.28 20.10L404.10 20.10L404.10 37.70Q404.10 40.51 404.58 42.27Q405.06 44.03 405.95 44.99Q406.85 45.95 408.13 46.27Q409.41 46.59 410.94 46.59L410.94 46.59Q413.63 46.59 415.20 45.98Q416.77 45.38 417.66 44.86L417.66 44.86L418.69 48.32Q417.79 48.90 415.55 49.63Q413.31 50.37 410.69 50.37L410.69 50.37Q407.62 50.37 405.54 49.57Q403.46 48.77 402.21 47.14Q400.96 45.50 400.45 43.07Q399.94 40.64 399.94 37.31L399.94 37.31ZM429.12 16.58L429.12 49.66L424.96 49.66L424.96 16.58L429.12 16.58ZM430.08 6.59L430.08 6.59Q430.08 8.06 429.18 8.93Q428.29 9.79 427.01 9.79L427.01 9.79Q425.73 9.79 424.83 8.93Q423.94 8.06 423.94 6.59L423.94 6.59Q423.94 5.12 424.83 4.26Q425.73 3.39 427.01 3.39L427.01 3.39Q428.29 3.39 429.18 4.26Q430.08 5.12 430.08 6.59ZM468.35 33.15L468.35 33.15Q468.35 37.06 467.23 40.26Q466.11 43.46 464.10 45.70Q462.08 47.94 459.33 49.18Q456.58 50.43 453.25 50.43L453.25 50.43Q449.92 50.43 447.17 49.18Q444.42 47.94 442.40 45.70Q440.38 43.46 439.26 40.26Q438.14 37.06 438.14 33.15L438.14 33.15Q438.14 29.25 439.26 26.05Q440.38 22.85 442.40 20.58Q444.42 18.30 447.17 17.06Q449.92 15.81 453.25 15.81L453.25 15.81Q456.58 15.81 459.33 17.06Q462.08 18.30 464.10 20.58Q466.11 22.85 467.23 26.05Q468.35 29.25 468.35 33.15ZM463.94 33.15L463.94 33.15Q463.94 26.94 461.06 23.26Q458.18 19.58 453.25 19.58L453.25 19.58Q448.32 19.58 445.44 23.26Q442.56 26.94 442.56 33.15L442.56 33.15Q442.56 39.36 445.44 43.01Q448.32 46.66 453.25 46.66L453.25 46.66Q458.18 46.66 461.06 43.01Q463.94 39.36 463.94 33.15ZM481.54 49.66L477.38 49.66L477.38 17.73Q479.23 17.22 482.34 16.58Q485.44 15.94 490.05 15.94L490.05 15.94Q493.82 15.94 496.35 17.02Q498.88 18.11 500.38 20.13Q501.89 22.14 502.53 24.96Q503.17 27.78 503.17 31.17L503.17 31.17L503.17 49.66L499.01 49.66L499.01 32.51Q499.01 28.99 498.53 26.56Q498.05 24.13 496.93 22.59Q495.81 21.06 493.98 20.38Q492.16 19.71 489.41 19.71L489.41 19.71Q486.46 19.71 484.32 20.03Q482.18 20.35 481.54 20.61L481.54 20.61L481.54 49.66ZM528.64 5.31L554.24 5.31L554.24 9.09L532.99 9.09L532.99 24.51L551.94 24.51L551.94 28.22L532.99 28.22L532.99 45.89L555.90 45.89L555.90 49.66L528.64 49.66L528.64 5.31ZM568.06 49.66L563.90 49.66L563.90 17.73Q565.76 17.22 568.86 16.58Q571.97 15.94 576.58 15.94L576.58 15.94Q580.35 15.94 582.88 17.02Q585.41 18.11 586.91 20.13Q588.42 22.14 589.06 24.96Q589.70 27.78 589.70 31.17L589.70 31.17L589.70 49.66L585.54 49.66L585.54 32.51Q585.54 28.99 585.06 26.56Q584.58 24.13 583.46 22.59Q582.34 21.06 580.51 20.38Q578.69 19.71 575.94 19.71L575.94 19.71Q572.99 19.71 570.85 20.03Q568.70 20.35 568.06 20.61L568.06 20.61L568.06 49.66ZM621.89 48L621.89 45.82Q621.50 46.14 620.74 46.56Q619.97 46.98 618.85 47.42Q617.73 47.87 616.29 48.16Q614.85 48.45 613.06 48.45L613.06 48.45Q610.18 48.45 607.49 47.55Q604.80 46.66 602.78 44.74Q600.77 42.82 599.55 39.78Q598.34 36.74 598.34 32.38L598.34 32.38Q598.34 28.86 599.42 25.86Q600.51 22.85 602.53 20.64Q604.54 18.43 607.46 17.18Q610.37 15.94 614.02 15.94L614.02 15.94Q618.62 15.94 621.41 16.54Q624.19 17.15 625.98 17.73L625.98 17.73L625.98 47.94Q625.98 55.36 622.14 58.53Q618.30 61.70 610.56 61.70L610.56 61.70Q607.36 61.70 604.77 61.22Q602.18 60.74 600.32 60.10L600.32 60.10L601.15 56.32Q602.69 57.02 605.34 57.54Q608 58.05 610.69 58.05L610.69 58.05Q616.58 58.05 619.23 55.78Q621.89 53.50 621.89 48L621.89 48ZM621.82 41.92L621.82 20.61Q620.74 20.29 619.01 20Q617.28 19.71 614.08 19.71L614.08 19.71Q611.39 19.71 609.31 20.64Q607.23 21.57 605.76 23.26Q604.29 24.96 603.52 27.30Q602.75 29.63 602.75 32.45L602.75 32.45Q602.75 35.71 603.65 38.05Q604.54 40.38 605.98 41.86Q607.42 43.33 609.28 44Q611.14 44.67 613.06 44.67L613.06 44.67Q615.87 44.67 618.21 43.84Q620.54 43.01 621.82 41.92L621.82 41.92ZM641.15 16.58L641.15 49.66L636.99 49.66L636.99 16.58L641.15 16.58ZM642.11 6.59L642.11 6.59Q642.11 8.06 641.22 8.93Q640.32 9.79 639.04 9.79L639.04 9.79Q637.76 9.79 636.86 8.93Q635.97 8.06 635.97 6.59L635.97 6.59Q635.97 5.12 636.86 4.26Q637.76 3.39 639.04 3.39L639.04 3.39Q640.32 3.39 641.22 4.26Q642.11 5.12 642.11 6.59ZM656.32 49.66L652.16 49.66L652.16 17.73Q654.02 17.22 657.12 16.58Q660.22 15.94 664.83 15.94L664.83 15.94Q668.61 15.94 671.14 17.02Q673.66 18.11 675.17 20.13Q676.67 22.14 677.31 24.96Q677.95 27.78 677.95 31.17L677.95 31.17L677.95 49.66L673.79 49.66L673.79 32.51Q673.79 28.99 673.31 26.56Q672.83 24.13 671.71 22.59Q670.59 21.06 668.77 20.38Q666.94 19.71 664.19 19.71L664.19 19.71Q661.25 19.71 659.10 20.03Q656.96 20.35 656.32 20.61L656.32 20.61L656.32 49.66ZM686.59 33.09L686.59 33.09Q686.59 28.74 687.84 25.50Q689.09 22.27 691.10 20.10Q693.12 17.92 695.71 16.86Q698.30 15.81 701.06 15.81L701.06 15.81Q707.14 15.81 710.75 19.78Q714.37 23.74 714.37 32L714.37 32Q714.37 32.51 714.34 33.02Q714.30 33.54 714.24 33.98L714.24 33.98L691.01 33.98Q691.20 40.06 694.02 43.33Q696.83 46.59 702.98 46.59L702.98 46.59Q706.37 46.59 708.35 45.95Q710.34 45.31 711.23 44.86L711.23 44.86L712.00 48.45Q711.10 48.96 708.64 49.66Q706.18 50.37 702.85 50.37L702.85 50.37Q698.50 50.37 695.42 49.09Q692.35 47.81 690.37 45.50Q688.38 43.20 687.49 40.03Q686.59 36.86 686.59 33.09ZM691.14 30.46L710.08 30.46Q709.95 25.28 707.65 22.40Q705.34 19.52 701.12 19.52L701.12 19.52Q698.88 19.52 697.12 20.42Q695.36 21.31 694.05 22.82Q692.74 24.32 692.00 26.30Q691.26 28.29 691.14 30.46L691.14 30.46Z"></path>
              </g>
    </g>
  </svg>